<?xml version="1.0" ?><!DOCTYPE svg  PUBLIC '-//W3C//DTD SVG 1.1//EN'  'http://www.w3.org/Graphics/SVG/1.1/DTD/svg11.dtd'><svg enable-background="new 0 0 512 512" height="512px" id="Email" version="1.1" viewBox="0 0 512 512" width="512px" xml:space="preserve" xmlns="http://www.w3.org/2000/svg" xmlns:xlink="http://www.w3.org/1999/xlink"><g><path d="M449.732,224.291L256,367.08L62.268,224.291l177.511-177.51c8.959-8.959,23.484-8.959,32.443,0   L449.732,224.291z" fill="#3F5EAB"/></g><linearGradient gradientUnits="userSpaceOnUse" id="SVGID_1_" x1="102.6484" x2="409.3519" y1="405.5176" y2="98.8141"><stop offset="0" style="stop-color:#00FFFF"/><stop offset="1" style="stop-color:#FF7BAC"/></linearGradient><rect fill="url(#SVGID_1_)" height="330.806" width="282.602" x="114.699" y="86.763"/><g><linearGradient gradientUnits="userSpaceOnUse" id="SVGID_2_" x1="256.0005" x2="256.0005" y1="471.9385" y2="348.1152"><stop offset="0" style="stop-color:#FFFFFF"/><stop offset="0.3279" style="stop-color:#FCFCFC"/><stop offset="0.5302" style="stop-color:#F4F4F4"/><stop offset="0.6984" style="stop-color:#E5E5E5"/><stop offset="0.848" style="stop-color:#D1D1D1"/><stop offset="0.9839" style="stop-color:#B7B7B7"/><stop offset="1" style="stop-color:#B3B3B3"/></linearGradient><polyline fill="url(#SVGID_2_)" points="449.732,348.115 449.732,471.938 62.268,471.938 62.268,348.115  "/></g><g><polygon fill="#FFFFFF" points="62.268,224.291 229.499,348.115 62.268,471.938  "/></g><g><polygon fill="#FFFFFF" points="449.732,224.291 282.501,348.115 449.732,471.938  "/></g><path d="M298.949,290.894c8.68,0,8.694-13.488,0-13.488c-40.594,0-133.195,0-138.901,0  c-8.679,0-8.693,13.488,0,13.488C160.048,290.894,293.244,290.894,298.949,290.894z" fill="#FFFFFF"/><path d="M353.17,139.198c8.68,0,8.693-13.489,0-13.489c-56.49,0-185.238,0-193.122,0c-8.679,0-8.693,13.489,0,13.489  C160.048,139.198,345.286,139.198,353.17,139.198z" fill="#FFFFFF"/><path d="M353.17,177.579c8.68,0,8.693-13.489,0-13.489c-56.49,0-185.238,0-193.122,0c-8.679,0-8.693,13.489,0,13.489  C160.048,177.579,345.286,177.579,353.17,177.579z" fill="#FFFFFF"/><path d="M353.17,215.046c8.68,0,8.693-13.488,0-13.488c-56.49,0-185.238,0-193.122,0c-8.679,0-8.693,13.488,0,13.488  C160.048,215.046,345.286,215.046,353.17,215.046z" fill="#FFFFFF"/><path d="M353.17,252.513c8.68,0,8.693-13.488,0-13.488c-56.49,0-185.238,0-193.122,0c-8.679,0-8.693,13.488,0,13.488  C160.048,252.513,345.286,252.513,353.17,252.513z" fill="#FFFFFF"/></svg>